<?xml version="1.0" encoding="UTF-8" standalone="no"?>
<!-- Created with Inkscape (http://www.inkscape.org/) -->

<svg
   width="49.536949mm"
   height="49.57766mm"
   viewBox="0 0 49.536949 49.57766"
   version="1.1"
   id="svg1"
   xml:space="preserve"
   xmlns="http://www.w3.org/2000/svg"
   xmlns:svg="http://www.w3.org/2000/svg"><defs
     id="defs1" /><g
     id="layer1"
     transform="translate(-80.818188,-125.47035)"><path
       style="fill:#000000"
       d="m 103.18991,174.94156 c -10.683159,-0.95894 -19.74885,-9.1039 -21.954017,-19.7243 -0.556948,-2.68234 -0.556948,-7.28676 0,-9.96911 2.002618,-9.64489 9.719451,-17.358 19.371527,-19.36217 2.68869,-0.55828 7.27981,-0.55349 9.99598,0.0104 4.84178,1.00522 9.37423,3.54249 12.87649,7.20827 4.60153,4.81637 6.87524,10.48077 6.87524,17.12803 0,6.64725 -2.27371,12.31166 -6.87524,17.12803 -5.3162,5.5644 -12.56826,8.27394 -20.28998,7.58082 z m 7.23007,-1.18428 c 9.36835,-1.93039 16.75439,-9.31642 18.68477,-18.68477 0.53812,-2.61155 0.53812,-7.06806 0,-9.6796 -0.43187,-2.09592 -1.69877,-5.68061 -2.29657,-6.49815 -0.30625,-0.41882 -2.20162,0.63262 -20.9688,11.63226 -11.347662,6.65098 -20.676243,12.12787 -20.730177,12.17087 -0.05393,0.043 0.438119,0.82779 1.093453,1.74399 3.263041,4.56197 8.704353,8.08597 14.354564,9.29655 2.49515,0.53459 7.3151,0.5438 9.86276,0.0189 z m -5.1137,-23.85003 c 10.77367,-6.31994 19.85902,-11.66436 20.18966,-11.87647 l 0.60119,-0.38567 -0.8506,-1.24683 c -3.22721,-4.73054 -8.96898,-8.48317 -14.82655,-9.69014 -2.61154,-0.53812 -7.06805,-0.53812 -9.6796,0 -9.451667,1.94755 -16.789405,9.34662 -18.720503,18.87698 -0.345894,1.70706 -0.418041,3.02688 -0.310734,5.68438 0.151465,3.75107 0.660734,6.01145 2.039485,9.05222 0.737368,1.62623 0.807857,1.69785 1.373219,1.39528 0.327775,-0.17542 9.41077,-5.48981 20.184433,-11.80975 z"
       id="path1" /></g></svg>
