<?xml version="1.0" encoding="UTF-8" standalone="no"?>
<!-- Created with Inkscape (http://www.inkscape.org/) -->

<svg
   width="49.650135mm"
   height="49.625874mm"
   viewBox="0 0 49.650135 49.625874"
   version="1.1"
   id="svg1"
   xml:space="preserve"
   xmlns="http://www.w3.org/2000/svg"
   xmlns:svg="http://www.w3.org/2000/svg"><defs
     id="defs1" /><g
     id="layer1"
     transform="translate(-77.368118,-124.88808)"><path
       style="fill:#000000"
       d="m 111.80692,172.57833 c -9.85812,4.22692 -21.703572,1.36121 -28.685646,-6.93978 -1.763429,-2.09653 -3.949,-6.14919 -4.732016,-8.77446 -2.815488,-9.43967 0.315434,-19.89141 7.85954,-26.23694 2.10149,-1.76762 6.144708,-3.94266 8.803056,-4.7356 4.738716,-1.41347 9.932376,-1.33166 14.754966,0.23241 6.33629,2.055 11.02624,5.96136 14.18148,11.81204 3.15524,5.85068 3.84271,11.91554 2.07878,18.33895 -2.03789,7.42102 -7.13477,13.24818 -14.26016,16.30338 z m 7.07571,-5.57185 c 1.57772,-1.5495 4.04162,-4.76868 3.87968,-5.06896 -0.093,-0.1724 -40.74831,-0.3129 -41.065355,-0.14192 -0.263768,0.14225 0.696238,1.67969 2.077095,3.32645 6.086677,7.25876 15.946966,10.26201 25.15204,7.66081 2.67595,-0.75618 7.97544,-3.83073 9.95654,-5.77638 z m -6.11309,-23.29691 c -5.48186,-9.42287 -10.00885,-17.14247 -10.05999,-17.15468 -0.19981,-0.0477 -20.489286,33.93443 -20.373366,34.12263 0.103345,0.16777 40.293416,0.38727 40.373486,0.22049 0.0148,-0.0308 -4.45828,-7.76558 -9.94013,-17.18844 z M 125.024,157.1374 c 3.55756,-10.73693 -1.23381,-22.92989 -11.17018,-28.42556 -1.19062,-0.65852 -3.10223,-1.50347 -4.24802,-1.87766 -1.98368,-0.64784 -6.10033,-1.35161 -6.18823,-1.05792 -0.0228,0.0762 4.3924,7.7554 9.81155,17.06498 5.41914,9.30959 9.95616,17.11237 10.08226,17.33952 0.33531,0.60399 0.74581,-0.12548 1.71262,-3.04336 z M 91.629925,143.22802 c 5.624023,-9.34554 10.271025,-17.13994 10.326675,-17.3209 0.12465,-0.40534 -2.462785,-0.23015 -5.142568,0.34818 -2.798678,0.604 -7.583963,2.97578 -9.905741,4.90968 -7.471657,6.22344 -10.501072,16.19396 -7.728837,25.43743 0.73884,2.46351 1.668405,4.27501 1.99545,3.88864 0.126238,-0.14913 4.830998,-7.9175 10.455021,-17.26303 z"
       id="path1" /></g></svg>
