<?xml version="1.0" encoding="UTF-8" standalone="no"?>
<!-- Created with Inkscape (http://www.inkscape.org/) -->

<svg
   width="49.196487mm"
   height="49.260674mm"
   viewBox="0 0 49.196487 49.260674"
   version="1.1"
   id="svg1"
   xml:space="preserve"
   xmlns="http://www.w3.org/2000/svg"
   xmlns:svg="http://www.w3.org/2000/svg"><defs
     id="defs1" /><g
     id="layer1"
     transform="translate(-53.962823,-96.562481)"><g
       id="g1"
       transform="translate(-3.746119,-3.0737387)"><g
         id="g8"
         transform="translate(-7.4083335)"><g
           id="g13"
           transform="translate(-2.4013583,-3.457956)"><path
             style="fill:#333333;fill-opacity:1"
             d="m 87.794632,152.15168 c -7.863788,-1.40373 -14.793904,-6.78462 -18.181812,-14.1173 -1.706746,-3.69403 -2.094187,-5.60736 -2.094187,-10.34189 0,-3.61272 0.08812,-4.53958 0.601059,-6.32223 2.081233,-7.23303 6.649228,-12.76158 13.149316,-15.91434 4.010716,-1.94535 5.923287,-2.36174 10.847857,-2.36174 4.924573,0 6.837131,0.41639 10.847875,2.36174 6.5001,3.15276 11.06809,8.68131 13.14933,15.91434 0.51294,1.78265 0.60105,2.70951 0.60105,6.32223 0,3.61271 -0.0881,4.53957 -0.60105,6.32222 -2.51152,8.72842 -8.93208,15.19164 -17.514951,17.63135 -2.276578,0.64713 -8.405092,0.93392 -10.804487,0.50562 z m 3.657299,-1.40934 c -0.652927,-0.63773 -6.128207,-5.72033 -12.167281,-11.29467 -10.632491,-9.81421 -10.982784,-10.10914 -11.061485,-9.31345 -0.232442,2.35007 1.99023,8.34351 4.279539,11.53978 1.348176,1.88229 4.226884,4.71202 6.074632,5.97129 3.595256,2.45022 8.504989,4.01206 13.271462,4.2218 l 0.790264,0.0348 z m 6.325264,0.35885 c 2.434675,-0.58366 5.885775,-2.09734 7.879225,-3.4559 1.84775,-1.25927 4.72646,-4.089 6.07463,-5.97129 2.37904,-3.32154 4.0303,-7.86983 4.43541,-12.21702 0.0916,-0.98291 0.055,-1.6389 -0.0884,-1.5875 -0.13451,0.0482 -4.61217,4.6715 -9.95037,10.27405 -5.33819,5.60255 -10.432843,10.9306 -11.32147,11.8401 l -1.615691,1.65365 1.182974,-0.002 c 0.650637,-0.001 2.182318,-0.24142 3.403742,-0.53423 z m 6.548935,-12.07644 11.31735,-11.81878 -2.55301,-2.40258 c -1.40416,-1.32141 -6.67342,-6.39116 -11.70949,-11.26611 -5.036039,-4.87495 -9.259015,-8.89958 -9.384382,-8.94363 -0.29498,-0.10363 -23.337288,23.76657 -23.235897,24.07074 0.109409,0.32823 23.797554,22.17914 24.043971,22.17914 0.11229,0 5.29693,-5.31845 11.521458,-11.81878 z M 79.708387,116.02646 c 6.388104,-6.63459 11.648734,-12.15393 11.690284,-12.26519 0.1155,-0.30926 -2.463258,-0.0262 -4.937773,0.5419 -2.640015,0.60616 -6.076974,2.16461 -8.325473,3.77508 -1.882287,1.34818 -4.712019,4.22689 -5.971285,6.07463 -1.37923,2.02378 -2.883562,5.47517 -3.436166,7.88361 -0.488049,2.12709 -0.970216,6.05287 -0.743417,6.05287 0.05997,0 5.335694,-5.4283 11.72383,-12.0629 z m 36.351373,9.35092 c -0.005,-2.80448 -1.91583,-8.18082 -3.99014,-11.2245 -1.25927,-1.84774 -4.089,-4.72645 -5.97129,-6.07463 -3.33475,-2.3885 -7.867478,-4.02974 -12.261684,-4.43979 l -1.719781,-0.16049 2.116658,2.11396 c 4.871033,4.86486 21.446837,20.87524 21.629647,20.89187 0.10914,0.01 0.19761,-0.48795 0.19659,-1.10642 z"
             id="path13" /></g></g></g></g></svg>
