<?xml version="1.0" encoding="UTF-8" standalone="no"?>
<!-- Created with Inkscape (http://www.inkscape.org/) -->

<svg
   width="49.549908mm"
   height="49.590279mm"
   viewBox="0 0 49.549908 49.590279"
   version="1.1"
   id="svg1"
   xml:space="preserve"
   xmlns="http://www.w3.org/2000/svg"
   xmlns:svg="http://www.w3.org/2000/svg"><defs
     id="defs1" /><g
     id="layer1"
     transform="translate(-95.081296,-116.77713)"><path
       style="fill:#000000"
       d="m 117.46597,166.26094 c -5.91343,-0.53081 -11.28769,-3.16198 -15.53171,-7.60415 -4.578236,-4.79199 -6.852961,-10.46961 -6.852961,-17.10471 0,-6.51095 2.24086,-12.21778 6.631131,-16.88759 4.98222,-5.29944 10.93538,-7.88736 18.14382,-7.88736 6.9635,0 13.0975,2.6205 17.89971,7.64692 4.60153,4.81637 6.87524,10.48078 6.87524,17.12803 0,6.64726 -2.27371,12.31166 -6.87524,17.12803 -5.3162,5.56441 -12.56826,8.27395 -20.28999,7.58083 z m 7.23008,-1.18429 c 9.36835,-1.93038 16.75439,-9.31642 18.68477,-18.68477 0.53812,-2.61154 0.53812,-7.06805 0,-9.6796 -1.22082,-5.92479 -4.87166,-11.504 -9.67576,-14.78649 -0.99394,-0.67913 -1.84982,-1.18448 -1.90194,-1.123 -0.30786,0.36314 -10.3051,18.90307 -10.73941,19.91628 -0.29118,0.67929 -0.70413,1.22989 -0.92243,1.22989 -0.23869,0 -2.86611,-4.1418 -6.63365,-10.4571 l -6.23843,-10.4571 -1.2471,0.85078 c -4.73083,3.22742 -8.483416,8.96903 -9.690421,14.82674 -0.538119,2.61155 -0.538119,7.06806 0,9.6796 1.912178,9.27999 9.250941,16.68393 18.501611,18.66592 2.49515,0.5346 7.3151,0.54381 9.86276,0.0189 z m -5.23667,-36.48915 v -10.98021 h -1.20178 c -1.72053,0 -4.9573,0.71598 -7.27968,1.61027 -3.45599,1.33082 -3.74247,0.16013 2.6701,10.91122 3.09647,5.19141 5.67076,9.43893 5.72065,9.43893 0.0499,0 0.0907,-4.9411 0.0907,-10.98021 z m 6.84101,0.54069 c 2.6204,-4.79585 4.71079,-8.80641 4.64532,-8.91235 -0.22951,-0.37136 -4.23024,-1.77222 -6.24966,-2.18833 -1.12165,-0.23112 -2.59738,-0.42022 -3.2794,-0.42022 h -1.24004 l 0.16867,1.78594 c 0.0928,0.98226 0.17478,5.95312 0.18224,11.04635 0.0135,9.2194 0.0158,9.25632 0.51104,8.33438 0.27361,-0.50933 2.64143,-4.84992 5.26183,-9.64577 z"
       id="path1" /></g></svg>
