<?xml version="1.0" encoding="UTF-8" standalone="no"?>
<!-- Created with Inkscape (http://www.inkscape.org/) -->

<svg
   width="49.196609mm"
   height="49.260689mm"
   viewBox="0 0 49.196609 49.260689"
   version="1.1"
   id="svg1"
   xml:space="preserve"
   xmlns="http://www.w3.org/2000/svg"
   xmlns:svg="http://www.w3.org/2000/svg"><defs
     id="defs1" /><g
     id="layer1"
     transform="translate(-11.674907,-129.0847)"><g
       id="g1"
       transform="translate(-3.746119,-3.0737387)"><g
         id="g8"
         transform="translate(-7.4083335)"><path
           style="fill:#333333;fill-opacity:1"
           d="m 43.10541,181.21593 c -7.863837,-1.40373 -14.793955,-6.78462 -18.181862,-14.1173 -1.706747,-3.69403 -2.094188,-5.60736 -2.094188,-10.34189 0,-3.61271 0.08812,-4.53957 0.601059,-6.32223 2.081233,-7.23303 6.649228,-12.76157 13.149331,-15.91434 4.010742,-1.94534 5.923313,-2.36174 10.847916,-2.36174 4.924603,0 6.837174,0.4164 10.847916,2.36174 6.500103,3.15277 11.068098,8.68131 13.149331,15.91434 0.512942,1.78266 0.601059,2.70952 0.601059,6.32223 0,3.61271 -0.08812,4.53957 -0.601059,6.32223 -2.511514,8.72841 -8.932075,15.19164 -17.514955,17.63134 -2.276593,0.64713 -8.40514,0.93393 -10.804548,0.50562 z m 9.978252,-1.06439 c 2.413944,-0.56022 5.867731,-2.06815 7.883607,-3.442 1.847748,-1.25927 4.726456,-4.089 6.074632,-5.97129 4.917292,-6.86538 5.821258,-16.23086 2.308378,-23.9158 -0.778747,-1.70363 -1.038599,-2.0624 -1.294396,-1.78716 -0.465466,0.50084 -17.844123,30.90155 -19.140904,33.48343 -0.602989,1.20055 -1.243843,2.18096 -1.42412,2.1787 -0.180277,-0.002 -4.782897,-2.50237 -10.228044,-5.55581 -5.445148,-3.05343 -9.954005,-5.49796 -10.019683,-5.43228 -0.432735,0.43274 4.255898,5.37205 6.644931,7.00021 5.492642,3.74331 12.490475,4.99811 19.195599,3.442 z m -4.685965,-2.16199 c 0.524578,-1.05502 5.019332,-8.99269 9.988343,-17.63926 4.969011,-8.64656 8.941466,-15.81383 8.827679,-15.92725 -0.316417,-0.3154 -20.231107,-11.38745 -20.31591,-11.29512 -0.04087,0.0445 -0.430134,0.86962 -0.865036,1.8336 -0.434902,0.96398 -4.869627,8.91472 -9.854944,17.66832 -4.985318,8.75359 -9.006404,15.97344 -8.935747,16.04409 0.201096,0.2011 19.903014,11.23385 20.061029,11.23385 0.07744,0 0.570008,-0.8632 1.094586,-1.91823 z M 35.124542,153.15888 c 4.729426,-8.30146 9.170194,-16.2458 9.868372,-17.6541 l 1.269415,-2.56054 -1.052498,-0.0805 c -2.461893,-0.1882 -8.188401,1.80472 -11.321768,3.94015 -1.847747,1.25927 -4.726455,4.089 -6.074632,5.97129 -4.832829,6.74746 -5.806678,16.11386 -2.45481,23.61017 0.462515,1.03439 0.914292,1.87764 1.003949,1.87388 0.08966,-0.004 4.032545,-6.79894 8.761972,-15.1004 z m 31.978917,-10.35891 c -1.062361,-1.52034 -4.017888,-4.45676 -5.694278,-5.65746 -2.248501,-1.61048 -5.685483,-3.16893 -8.325519,-3.77508 -2.35003,-0.53957 -4.99924,-0.84913 -4.987507,-0.58279 0.0077,0.17377 19.037689,10.82891 19.391715,10.85765 0.119049,0.01 -0.05394,-0.36938 -0.384411,-0.84232 z"
           id="path8" /></g></g></g></svg>
