<?xml version="1.0" encoding="UTF-8" standalone="no"?>
<!-- Created with Inkscape (http://www.inkscape.org/) -->

<svg
   width="49.523811mm"
   height="49.528584mm"
   viewBox="0 0 49.523811 49.528584"
   version="1.1"
   id="svg1"
   xml:space="preserve"
   xmlns="http://www.w3.org/2000/svg"
   xmlns:svg="http://www.w3.org/2000/svg"><defs
     id="defs1" /><g
     id="layer1"
     transform="translate(-42.096785,-122.49353)"><g
       id="g1"
       transform="translate(-3.746119,-3.0737387)"><path
         style="fill:#333333;fill-opacity:1"
         d="m 89.336663,166.63499 c -5.25209,6.01878 -13.432955,9.18945 -21.46333,8.31858 -4.045516,-0.43873 -5.885237,-1.09167 -9.94404,-3.52926 -3.097099,-1.86002 -3.846309,-2.41276 -5.110451,-3.7703 -5.129191,-5.50815 -7.516841,-12.27058 -6.873039,-19.46619 0.397244,-4.43989 1.024973,-6.29387 3.560423,-10.51563 2.535449,-4.22175 3.877107,-5.64698 7.609752,-8.08373 6.049392,-3.94918 13.140693,-5.01884 20.412901,-3.07908 1.792311,0.47807 2.632255,0.87973 5.729337,2.73975 3.097082,1.86001 3.846289,2.41275 5.11042,3.77029 6.189587,6.64692 8.424705,15.47874 6.097297,24.09275 -0.617337,2.28485 -3.526759,7.68638 -5.12927,9.52282 z m 4.224836,-9.10214 c 0.762554,-2.35785 1.248021,-6.09507 1.108144,-8.53057 -0.12823,-2.23237 -1.071974,-6.15712 -1.991501,-8.28199 -3.381769,-7.81469 -11.035277,-13.43192 -19.486849,-14.3022 -1.338511,-0.13783 -2.512135,-0.11993 -2.608045,0.0398 -0.0959,0.1597 0.0892,1.21735 0.411367,2.35034 1.028424,3.61673 11.502627,41.91523 11.707484,42.15915 0.0816,0.0972 0.887177,-0.33918 1.790191,-0.96964 4.281946,-2.9895 7.383338,-7.2521 9.069209,-12.46486 z m -23.089191,14.01611 c -10.173336,-0.004 -10.998575,0.0401 -10.164136,0.5394 1.468857,0.87889 5.081146,1.89854 7.670561,2.16518 3.009522,0.30989 4.871973,0.20593 7.769655,-0.43371 2.200298,-0.4857 5.903907,-1.83531 5.831597,-2.12506 -0.0195,-0.078 -5.01792,-0.14361 -11.107677,-0.14581 z m -0.369897,-42.64711 c -0.18205,0.14488 -11.178298,40.98277 -11.206272,41.61785 -0.01869,0.42442 22.650526,0.49772 22.744976,0.0735 0.0347,-0.15585 -11.440434,-41.76957 -11.538704,-41.69135 z m -6.138184,19.82328 c 3.160762,-11.79676 5.697827,-21.67313 5.637937,-21.94748 -0.14296,-0.65484 -1.030644,-0.63004 -4.333316,0.12104 -6.586238,1.49782 -11.775977,5.26199 -15.265363,11.07214 -3.490283,5.81164 -4.375889,12.1749 -2.598884,18.67351 0.824759,3.01619 1.581762,4.67342 3.308125,7.24216 2.095224,3.11757 6.828005,7.41395 7.300452,6.62728 0.112304,-0.187 2.790281,-9.99189 5.951049,-21.78865 z"
         id="path1" /></g></g></svg>
